<svg width="151" height="42" viewBox="0 0 151 42" fill="none" xmlns="http://www.w3.org/2000/svg">
<path d="M55.1745 21.2315H48.0648V5.21573H55.0031C58.065 5.21573 59.9358 6.85635 59.9358 9.35665V9.40259C59.9358 11.2105 59.0387 12.2146 57.9701 12.8577C59.7 13.5665 60.7686 14.6394 60.7686 16.7952V16.8412C60.7686 19.7647 58.5457 21.2315 55.1745 21.2315ZM56.6688 9.95055C56.6688 8.89727 55.9002 8.30993 54.5254 8.30993H51.2798V11.6896H54.2958C55.7471 11.6896 56.6657 11.1876 56.6657 9.99649L56.6688 9.95055ZM57.5016 16.3555C57.5016 15.2826 56.7545 14.6165 55.0674 14.6165H51.2675V18.1405H55.1745C56.6259 18.1405 57.5016 17.5926 57.5016 16.4015V16.3555ZM64.3756 21.2315V5.21573H67.6641V21.2315H64.3756ZM82.5419 21.2315L75.3035 11.0596V21.2315H72.0548V5.21573H75.0861L82.0887 15.0758V5.23213H85.3343V21.2479L82.5419 21.2315ZM100.114 21.2315L98.7485 17.6221H92.4288L91.0601 21.2315H87.7104L94.1159 5.10088H97.1625L103.568 21.2315H100.114ZM95.5886 9.34352L93.6015 14.5377H97.5819L95.5886 9.34352ZM116.428 21.2413L109.19 11.0695V21.2413H105.944V5.21573H108.975L115.978 15.0758V5.23213H119.224V21.2479L116.428 21.2413ZM130.072 21.5136C129.06 21.5301 128.055 21.3281 127.117 20.9197C126.18 20.5112 125.328 19.9046 124.614 19.1361C123.9 18.3676 123.337 17.4528 122.96 16.4463C122.582 15.4398 122.398 14.3622 122.417 13.2777V13.2318C122.417 8.67743 125.62 4.94995 130.21 4.94995C133.027 4.94995 134.714 5.95729 136.104 7.42072L134 9.99977C132.849 8.87759 131.673 8.19181 130.179 8.19181C127.659 8.19181 125.843 10.4329 125.843 13.1793V13.2252C125.843 15.9716 127.616 18.2586 130.179 18.2586C131.888 18.2586 132.935 17.5269 134.107 16.3818L136.199 18.6491C134.662 20.4079 132.956 21.5038 130.072 21.5038V21.5136ZM138.85 21.2413V5.21573H150.133V8.35915H142.114V11.6076H149.157V14.7412H142.114V18.1044H150.228V21.2413H138.85ZM104.667 37.4276C101.584 37.4276 99.2874 34.8552 99.2874 31.5805C99.2874 28.3058 101.538 25.7038 104.744 25.7038C105.51 25.6731 106.275 25.8142 106.987 26.1182C107.7 26.4222 108.346 26.8823 108.883 27.4691L107.689 28.9424C106.844 28.0991 105.938 27.5314 104.728 27.5314C102.701 27.5314 101.235 29.3131 101.235 31.5509C101.235 33.7887 102.701 35.5934 104.728 35.5934C106.027 35.5934 106.872 35.0258 107.766 34.1169L108.96 35.413C107.855 36.65 106.654 37.4276 104.667 37.4276ZM113.241 32.4566V37.2341H111.382V25.8974H113.241V30.6092H118.29V25.8974H120.148V37.2341H118.29V32.4566H113.241ZM133.449 37.2341H131.483L130.412 34.4975H125.405L124.315 37.2341H122.411L127.068 25.8153H128.789L133.449 37.2341ZM127.901 28.1975L126.088 32.7322H129.732L127.901 28.1975ZM137.632 25.9007V37.2341H135.773V25.8974L137.632 25.9007ZM148.41 25.9007H150.247V37.2341H148.688L142.871 29.1688V37.2341H141.033V25.8974H142.754L148.422 33.7363L148.41 25.9007ZM94.3088 30.6355H48.074V32.5222H94.3088V30.6355ZM5.10319 16.5622L0.746094 21.2315L5.10319 25.9007L9.46334 21.2315L5.10319 16.5622ZM20.0453 9.89149L27.5163 17.8944L31.8734 13.2252L20.0453 0.549805L8.21715 13.2252L12.5742 17.8944L20.0453 9.89149ZM34.9843 16.5622L30.6272 21.2315L34.9843 25.9007L39.3445 21.2315L34.9843 16.5622ZM20.0453 32.5714L12.5742 24.5652L8.21715 29.2344L20.0453 41.9098L31.8734 29.2344L27.5163 24.5652L20.0453 32.5714ZM20.0453 25.9007L24.4024 21.2315L20.0453 16.5622L15.6882 21.2315L20.0453 25.9007Z" fill="white"/>
</svg>
