<svg width="123" height="40" viewBox="0 0 123 40" fill="none" xmlns="http://www.w3.org/2000/svg">
<path fill-rule="evenodd" clip-rule="evenodd" d="M22.0341 31.2577C29.923 31.2577 36.3182 24.3828 36.3182 15.9023C36.3182 7.42172 29.923 0.546875 22.0341 0.546875C14.1452 0.546875 7.75 7.42172 7.75 15.9023C7.75 24.3828 14.1452 31.2577 22.0341 31.2577ZM21.7023 27.3311C27.5731 27.3311 32.3323 22.2149 32.3323 15.9038C32.3323 9.59272 27.5731 4.47656 21.7023 4.47656C15.8315 4.47656 11.0723 9.59272 11.0723 15.9038C11.0723 22.2149 15.8315 27.3311 21.7023 27.3311Z" fill="white"/>
<path fill-rule="evenodd" clip-rule="evenodd" d="M14.3935 39.4715C22.2823 39.4715 28.6775 32.5967 28.6775 24.1161C28.6775 15.6356 22.2823 8.76074 14.3935 8.76074C6.50458 8.76074 0.109375 15.6356 0.109375 24.1161C0.109375 32.5967 6.50458 39.4715 14.3935 39.4715ZM14.0617 35.545C19.9324 35.545 24.6917 30.4288 24.6917 24.1177C24.6917 17.8066 19.9324 12.6904 14.0617 12.6904C8.19086 12.6904 3.43164 17.8066 3.43164 24.1177C3.43164 30.4288 8.19086 35.545 14.0617 35.545Z" fill="white"/>
<path d="M61.3989 32.5096V28.76C61.3989 28.76 57.911 31.6172 54.423 30.903C50.935 30.1888 48.897 26.977 48.9419 23.9396C48.9911 20.6069 51.0997 17.6576 54.423 17.1546C56.904 16.7791 60.4024 19.4753 60.4024 19.4753L61.7311 16.4404C61.7311 16.4404 59.9041 13.7621 54.7552 13.9407C49.6063 14.1192 45.8326 18.3415 45.7861 23.5825C45.7463 28.0693 46.9488 31.2601 51.7655 33.4027C56.5822 35.5453 61.3989 32.5096 61.3989 32.5096Z" fill="white"/>
<path fill-rule="evenodd" clip-rule="evenodd" d="M71.5299 25.1888H85.98C85.98 25.1888 85.9306 20.6078 84.4852 18.2254C82.9521 15.6983 80.8311 14.4758 78.6719 14.1187C76.5127 13.7616 72.8008 14.2153 70.5333 16.9755C68.6865 19.2235 68.2366 22.609 68.5402 25.5459C69.0385 30.3668 71.862 33.7593 76.8449 34.1164C81.8277 34.4735 83.8208 32.3309 83.8208 32.3309V28.4028C83.8208 28.4028 80.611 31.0891 78.1736 31.081C76.0778 31.0741 74.4142 30.625 73.0247 28.9384C72.0025 27.6976 71.5299 25.1888 71.5299 25.1888ZM82.9903 22.332H71.5299C71.5299 22.332 71.937 20.247 72.8586 19.1181C73.9881 17.7344 75.3001 17.2324 77.011 17.154C78.8162 17.0713 80.1834 17.6041 81.4955 18.9396C82.6121 20.076 82.9903 22.332 82.9903 22.332Z" fill="white"/>
<path d="M93.2891 34.8314V5.90611L96.2788 4.65625V33.5815L93.2891 34.8314Z" fill="white"/>
<path fill-rule="evenodd" clip-rule="evenodd" d="M112.724 13.9408C118.275 13.8899 122.408 18.7004 122.025 24.654C121.667 30.2177 117.911 34.1646 112.724 34.1171C107.584 34.0701 103.777 30.1665 103.422 24.6539C103.043 18.7481 107.217 13.9913 112.724 13.9408ZM119.201 24.6539C119.531 20.5695 116.537 16.8493 112.724 16.7977C108.867 16.7455 105.747 20.5231 106.08 24.6539C106.385 28.4391 109.19 31.3083 112.724 31.2603C116.21 31.213 118.9 28.3884 119.201 24.6539Z" fill="white"/>
</svg>
