<svg width="211" height="57" viewBox="0 0 211 57" fill="none" xmlns="http://www.w3.org/2000/svg">
<g clip-path="url(#clip0_231_31961)">
<path d="M59.911 32.915C59.9079 33.1122 59.8326 33.3001 59.7014 33.4376C59.5703 33.575 59.394 33.651 59.2111 33.6487H46.3219C46.6524 37.0864 49.0436 40.2307 52.4263 40.2307C54.7397 40.2307 56.4505 39.2874 57.7336 37.296C57.7934 37.1914 57.876 37.1042 57.9743 37.0421C58.0726 36.9799 58.1836 36.9448 58.2974 36.9397C58.3823 36.9371 58.4668 36.9532 58.5457 36.987C58.6247 37.0209 58.6964 37.0717 58.7564 37.1365C58.8165 37.2013 58.8636 37.2786 58.895 37.3637C58.9264 37.4488 58.9414 37.5399 58.9389 37.6314C58.9394 37.7579 58.9056 37.8817 58.8417 37.9878C57.5392 40.4193 54.9536 41.6141 52.4263 41.6141C48.091 41.6141 44.9805 37.4218 44.9805 32.957C44.9805 28.4921 48.0716 24.2998 52.4263 24.2998C56.781 24.2998 59.8915 28.4502 59.911 32.915ZM58.5307 32.2652C58.2585 28.8275 55.809 25.6833 52.4263 25.6833C49.0436 25.6833 46.6524 28.8275 46.3219 32.2652H58.5307Z" fill="white"/>
<path d="M75.5808 24.6351C75.7494 24.6404 75.9098 24.715 76.029 24.8436C76.1483 24.9722 76.2175 25.1451 76.2224 25.3269C76.2248 25.4184 76.2098 25.5095 76.1784 25.5946C76.1471 25.6798 76.0999 25.7571 76.0398 25.8218C75.9798 25.8866 75.9081 25.9374 75.8292 25.9713C75.7502 26.0051 75.6657 26.0212 75.5808 26.0186H72.1204V40.6708C72.1188 40.8538 72.0508 41.0288 71.9308 41.1581C71.8108 41.2875 71.6485 41.3609 71.4788 41.3626C71.3102 41.3573 71.1499 41.2827 71.0306 41.1541C70.9113 41.0255 70.8422 40.8526 70.8373 40.6708V26.0186H67.5129C67.428 26.0212 67.3435 26.0051 67.2646 25.9713C67.1856 25.9374 67.1139 25.8866 67.0539 25.8218C66.9938 25.7571 66.9466 25.6798 66.9153 25.5946C66.8839 25.5095 66.8689 25.4184 66.8713 25.3269C66.8729 25.1439 66.9409 24.9689 67.0609 24.8396C67.1809 24.7102 67.3432 24.6368 67.5129 24.6351H70.8373V19.2899C70.8376 19.1128 70.8965 18.9416 71.0034 18.8071C71.1103 18.6727 71.2582 18.5837 71.4205 18.5563C71.5112 18.5433 71.6034 18.5515 71.6909 18.5805C71.7784 18.6095 71.859 18.6585 71.9273 18.7242C71.9956 18.7899 72.05 18.8707 72.0866 18.9611C72.1233 19.0515 72.1414 19.1493 72.1398 19.248V24.6351H75.5808Z" fill="white"/>
<path d="M96.6717 31.72V40.5868C96.6668 40.7686 96.5976 40.9415 96.4784 41.0701C96.3591 41.1987 96.1987 41.2732 96.0301 41.2785C95.9452 41.2811 95.8607 41.265 95.7818 41.2312C95.7029 41.1973 95.6312 41.1465 95.5711 41.0817C95.5111 41.0169 95.4639 40.9396 95.4325 40.8545C95.4011 40.7694 95.3862 40.6783 95.3886 40.5868V31.72C95.3886 28.7225 93.8139 25.7459 90.7228 25.7459C86.7569 25.7459 85.0461 29.4771 85.2794 33.3131C85.2794 33.4179 85.3183 33.8581 85.3183 33.921V40.5658C85.3179 40.7429 85.259 40.9141 85.1521 41.0486C85.0452 41.1831 84.8973 41.272 84.735 41.2995C84.6443 41.3125 84.5521 41.3042 84.4646 41.2752C84.3771 41.2462 84.2965 41.1972 84.2282 41.1315C84.1599 41.0659 84.1056 40.9851 84.0689 40.8947C84.0322 40.8043 84.0141 40.7064 84.0157 40.6077V11.45C84.0172 11.2671 84.0853 11.0921 84.2053 10.9627C84.3253 10.8333 84.4876 10.7599 84.6573 10.7583C84.8259 10.7636 84.9862 10.8381 85.1055 10.9667C85.2248 11.0953 85.2939 11.2682 85.2988 11.45V27.9259C86.4069 25.7878 88.3899 24.3415 90.7034 24.3415C94.5138 24.3415 96.6717 27.9259 96.6717 31.72Z" fill="white"/>
<path d="M119.829 32.915C119.826 33.1122 119.751 33.3001 119.619 33.4376C119.488 33.575 119.312 33.651 119.129 33.6487H106.24C106.57 37.0864 108.962 40.2307 112.344 40.2307C114.658 40.2307 116.369 39.2874 117.652 37.296C117.711 37.1914 117.794 37.1042 117.892 37.0421C117.991 36.9799 118.102 36.9448 118.215 36.9397C118.3 36.9371 118.385 36.9532 118.464 36.987C118.543 37.0209 118.614 37.0717 118.674 37.1365C118.734 37.2013 118.782 37.2786 118.813 37.3637C118.844 37.4488 118.859 37.5399 118.857 37.6314C118.857 37.7579 118.824 37.8817 118.76 37.9878C117.457 40.4193 114.872 41.6141 112.344 41.6141C108.009 41.6141 104.898 37.4218 104.898 32.957C104.898 28.4921 107.99 24.2998 112.344 24.2998C116.66 24.2998 119.81 28.4502 119.829 32.915ZM118.429 32.2652C118.157 28.8275 115.708 25.6833 112.325 25.6833C108.942 25.6833 106.551 28.8275 106.22 32.2652H118.429Z" fill="white"/>
<path d="M135.673 25.2846C135.685 25.4707 135.629 25.6545 135.516 25.7959C135.403 25.9372 135.243 26.0247 135.07 26.0392C131.279 26.6471 129.568 29.98 129.568 33.8579V40.5028C129.568 40.6799 129.509 40.8511 129.402 40.9855C129.295 41.12 129.147 41.209 128.985 41.2364C128.894 41.2494 128.802 41.2411 128.715 41.2121C128.627 41.1832 128.546 41.1342 128.478 41.0685C128.41 41.0028 128.356 40.922 128.319 40.8316C128.282 40.7412 128.264 40.6433 128.266 40.5447V25.3894C128.266 25.2123 128.325 25.0411 128.432 24.9066C128.539 24.7721 128.687 24.6832 128.849 24.6557C128.94 24.6427 129.032 24.651 129.119 24.68C129.207 24.709 129.287 24.758 129.356 24.8237C129.424 24.8893 129.478 24.9701 129.515 25.0605C129.552 25.1509 129.57 25.2488 129.568 25.3475V28.4288C130.637 26.4794 132.757 24.6348 134.973 24.6348C135.303 24.6348 135.673 24.8863 135.673 25.2846Z" fill="white"/>
<path d="M156.86 32.915C156.857 33.1122 156.782 33.3001 156.651 33.4376C156.52 33.575 156.343 33.651 156.16 33.6487H143.271C143.602 37.0864 145.993 40.2307 149.376 40.2307C151.689 40.2307 153.4 39.2874 154.683 37.296C154.743 37.1914 154.825 37.1042 154.924 37.0421C155.022 36.9799 155.133 36.9448 155.247 36.9397C155.332 36.9371 155.416 36.9532 155.495 36.987C155.574 37.0209 155.646 37.0717 155.706 37.1365C155.766 37.2013 155.813 37.2786 155.844 37.3637C155.876 37.4488 155.891 37.5399 155.888 37.6314C155.889 37.7579 155.855 37.8817 155.791 37.9878C154.488 40.4193 151.903 41.6141 149.376 41.6141C145.04 41.6141 141.93 37.4218 141.93 32.957C141.93 28.4921 145.021 24.2998 149.376 24.2998C153.73 24.2998 156.841 28.4502 156.86 32.915ZM155.48 32.2652C155.208 28.8275 152.758 25.6833 149.376 25.6833C145.993 25.6833 143.602 28.8275 143.271 32.2652H155.48Z" fill="white"/>
<path d="M177.703 25.4527V40.6709C177.698 40.8527 177.629 41.0256 177.51 41.1542C177.39 41.2828 177.23 41.3573 177.062 41.3626C176.977 41.3652 176.892 41.3491 176.813 41.3153C176.734 41.2814 176.663 41.2306 176.603 41.1658C176.542 41.101 176.495 41.0237 176.464 40.9386C176.433 40.8535 176.418 40.7624 176.42 40.6709V37.7782C175.351 40.063 173.465 41.719 171.054 41.719C167.225 41.719 165.105 38.1345 165.105 34.3404V25.4317C165.107 25.2488 165.175 25.0738 165.295 24.9444C165.415 24.815 165.577 24.7416 165.747 24.74C165.916 24.7453 166.076 24.8198 166.195 24.9484C166.315 25.077 166.384 25.2499 166.389 25.4317V34.3404C166.389 37.338 167.963 40.3145 171.054 40.3145C175.39 40.3145 176.42 35.9335 176.42 31.0914V25.4108C176.421 25.2986 176.448 25.1885 176.497 25.0896C176.546 24.9906 176.616 24.9058 176.702 24.8422C176.787 24.7786 176.886 24.738 176.989 24.7239C177.092 24.7097 177.197 24.7224 177.295 24.761C177.417 24.8222 177.52 24.9199 177.593 25.0425C177.665 25.165 177.703 25.3074 177.703 25.4527Z" fill="white"/>
<path d="M210.346 31.6569V40.5656C210.341 40.7474 210.271 40.9203 210.152 41.0489C210.033 41.1775 209.873 41.2521 209.704 41.2574C209.619 41.26 209.535 41.2439 209.456 41.21C209.377 41.1762 209.305 41.1253 209.245 41.0606C209.185 40.9958 209.138 40.9185 209.106 40.8334C209.075 40.7483 209.06 40.6572 209.062 40.5656V31.6569C209.062 28.6594 207.488 25.7248 204.397 25.7248C200.509 25.7248 199.031 30.2106 199.031 33.6902V40.5656C199.026 40.7474 198.957 40.9203 198.838 41.0489C198.718 41.1775 198.558 41.2521 198.389 41.2574C198.305 41.26 198.22 41.2439 198.141 41.21C198.062 41.1762 197.991 41.1253 197.93 41.0606C197.87 40.9958 197.823 40.9185 197.792 40.8334C197.76 40.7483 197.746 40.6572 197.748 40.5656V31.6569C197.748 28.6594 196.173 25.7248 193.082 25.7248C189.155 25.7248 187.542 29.0577 187.678 33.5016C187.678 33.6064 187.717 33.795 187.678 33.8579V40.5447C187.677 40.7218 187.618 40.893 187.511 41.0275C187.405 41.1619 187.257 41.2509 187.094 41.2783C187.004 41.2913 186.911 41.2831 186.824 41.2541C186.737 41.2251 186.656 41.1761 186.588 41.1104C186.519 41.0447 186.465 40.9639 186.428 40.8735C186.392 40.7831 186.373 40.6853 186.375 40.5866V25.3894C186.375 25.2123 186.434 25.0411 186.541 24.9066C186.648 24.7721 186.796 24.6832 186.958 24.6557C187.049 24.6427 187.141 24.651 187.229 24.68C187.316 24.709 187.397 24.758 187.465 24.8237C187.533 24.8893 187.588 24.9701 187.624 25.0605C187.661 25.1509 187.679 25.2488 187.678 25.3475V27.8838C188.786 25.7457 190.769 24.3413 193.082 24.3413C195.707 24.3413 197.748 26.144 198.584 28.7642C199.653 26.165 201.733 24.3413 204.397 24.3413C208.188 24.3413 210.346 27.8838 210.346 31.6569Z" fill="white"/>
<path opacity="0.6" d="M16.5187 21.2603L0.382812 29.1628L16.5187 39.455L32.674 29.1628L16.5187 21.2603Z" fill="white"/>
<path opacity="0.45" d="M0.382812 29.1625L16.5187 39.4547V0.277344L0.382812 29.1625Z" fill="white"/>
<path opacity="0.8" d="M16.5195 0.277344V39.4547L32.6748 29.1625L16.5195 0.277344Z" fill="white"/>
<path opacity="0.45" d="M0.382812 32.4746L16.5187 56.9998V42.7458L0.382812 32.4746Z" fill="white"/>
<path opacity="0.8" d="M16.5195 42.7458V56.9998L32.6748 32.4746L16.5195 42.7458Z" fill="white"/>
</g>
<defs>
<clipPath id="clip0_231_31961">
<rect width="209.96" height="56.7223" fill="white" transform="translate(0.382812 0.277344)"/>
</clipPath>
</defs>
</svg>
