<svg width="173" height="42" viewBox="0 0 173 42" fill="none" xmlns="http://www.w3.org/2000/svg">
<path d="M15.1111 0.00292969C6.96365 0.00292969 0.304688 7.02549 0.304688 15.7102C0.304688 17.4554 0.57888 19.1591 1.08809 20.8213C1.44063 21.9432 2.61574 22.5665 3.71251 22.1926C4.77011 21.8186 5.35766 20.572 5.00513 19.4085C4.57425 18.1203 4.3784 16.749 4.41757 15.3778C4.57425 9.51871 9.03967 4.69849 14.5627 4.40761C20.7124 4.07518 25.8046 9.26939 25.8046 15.7102C25.8046 21.7355 21.3392 26.6803 15.7378 27.0128C15.7378 27.0128 13.6618 27.1374 12.6433 27.3036C12.1341 27.3868 11.7424 27.4699 11.4682 27.5114C11.3507 27.553 11.2332 27.4283 11.2724 27.3036L11.6249 25.4753L13.5051 16.1257C13.7401 14.9622 13.035 13.7987 11.9383 13.5494C10.8415 13.3001 9.74474 14.048 9.50972 15.2115C9.50972 15.2115 4.88762 38.066 4.84845 38.3154C4.61343 39.4789 5.31849 40.6424 6.41526 40.8917C7.51203 41.141 8.6088 40.393 8.84382 39.2295C8.88299 38.9802 9.50972 35.9468 9.50972 35.9468C9.97976 33.6198 11.7816 31.9161 13.8968 31.6252C14.3668 31.5421 16.2078 31.4175 16.2078 31.4175C23.8461 30.7941 29.8783 24.0209 29.8783 15.7517C29.9175 7.02549 23.2977 0.00292969 15.1111 0.00292969ZM40.7285 17.2477C37.399 17.2477 34.6571 18.702 32.4635 21.6524C30.27 24.5611 29.1732 28.0101 29.1732 31.8745C29.1732 34.534 29.8783 36.6948 31.2493 38.3569C32.6202 40.0191 34.4612 40.8501 36.7723 40.8501C39.8667 40.8501 42.4911 39.4789 44.6847 36.7363C46.134 34.7417 46.7215 33.5367 47.0349 32.6641C47.8575 30.5448 48.2492 28.3425 48.2492 26.1401C48.2492 23.5223 47.6616 21.403 46.4865 19.7409C45.3114 18.0787 43.3529 17.2477 40.7285 17.2477ZM40.846 34.7833C39.71 35.9884 38.3783 36.6117 36.8898 36.6117C35.793 36.6117 34.8921 36.1961 34.2654 35.365C33.6386 34.534 33.3253 33.3705 33.3253 31.9161C33.3253 29.0073 33.9912 26.5557 35.3621 24.5611C36.6939 22.5665 38.4174 21.5693 40.4935 21.5693C42.8437 21.5693 43.9796 23.0652 43.9796 26.0986C44.0188 30.5448 42.0211 33.5367 40.846 34.7833ZM166.583 28.1763C165.604 27.8438 164.507 28.3425 164.115 29.3813C162.313 34.16 160.081 36.5701 157.339 36.5701C155.928 36.5701 155.223 35.2819 155.223 32.7472C155.223 31.3344 155.615 28.5503 156.398 24.4365L156.986 21.5277H162.548C163.488 21.5277 164.35 20.8213 164.507 19.824C164.781 18.4943 163.802 17.2477 162.548 17.2477H157.887L158.866 12.4275C159.14 11.0562 158.161 9.76803 156.829 9.76803C155.85 9.76803 155.028 10.4744 154.793 11.5133L153.617 17.2477H140.613C137.283 17.2477 134.541 18.702 132.348 21.6524C130.154 24.5611 129.058 28.0101 129.058 31.8745C129.058 32.9549 129.175 33.9107 129.41 34.8249C128.353 35.9884 127.217 36.5701 126.002 36.5701C125.18 36.5701 124.592 36.3208 124.24 35.8221C123.887 35.3235 123.691 34.4924 123.691 33.3289C123.691 31.6668 124.005 29.2151 124.671 25.9739L128.078 9.26938C128.353 7.89811 127.373 6.60995 126.041 6.60995C125.062 6.60995 124.2 7.35792 124.005 8.3552L121.968 18.5358C120.518 17.6632 119.03 17.2477 117.424 17.2477C114.055 17.2477 111.235 18.6189 108.963 21.403C106.73 24.1871 105.595 27.6776 105.595 31.8745C105.595 33.2043 105.751 34.3678 106.065 35.4482C105.164 36.2377 104.224 36.6117 103.205 36.6117C102.383 36.6117 101.795 36.3623 101.364 35.8637C100.972 35.3651 100.777 34.534 100.777 33.3705C100.777 32.3316 100.972 30.711 101.403 28.4256C101.638 27.1374 100.777 25.8908 99.5232 25.7662C98.5047 25.6415 97.5255 26.3479 97.2513 27.3868C96.4679 30.254 95.4886 32.4563 94.3918 33.9522C93.06 35.739 91.6107 36.6532 90.0831 36.6532C89.1822 36.6532 88.438 36.1961 87.8504 35.2819C87.302 34.3678 87.0278 33.1627 87.0278 31.7083C87.0278 28.758 87.6937 26.3064 89.0647 24.4365C90.4356 22.525 92.1983 21.5693 94.3918 21.5693C95.4886 21.5693 96.5854 21.8186 97.5255 22.2341C98.113 22.4834 98.8181 22.4834 99.3665 22.1094C100.777 21.1953 100.62 18.9514 99.1314 18.3281C98.3089 17.9541 97.878 17.871 97.5255 17.7879C96.5854 17.5386 95.4103 17.3308 94.4702 17.3308C91.1407 17.3723 88.3204 18.7436 86.0877 21.4861C84.8735 22.9821 83.9725 24.6858 83.4241 26.5972C81.4656 33.3289 78.8804 36.6948 75.7859 36.6948C74.7283 36.6948 73.9449 36.3208 73.4749 35.6144C72.9657 34.908 72.7306 33.9938 72.7306 32.9134C72.7306 32.5394 72.7306 32.2485 72.7698 32.0408C74.7283 31.2097 76.3343 29.9215 77.5094 28.2178C78.6845 26.5141 79.3113 24.6027 79.3113 22.5665C79.3113 19.1176 77.5486 17.4139 73.9841 17.4139C71.4772 17.4139 69.2837 18.3696 67.3251 20.2811L69.5187 9.39404C69.7929 8.02278 68.8136 6.77617 67.521 6.77617C66.5417 6.77617 65.7191 7.48258 65.5233 8.52142L59.4911 38.44C59.2169 39.8113 60.1961 41.0579 61.4888 41.0579C62.468 41.0579 63.2906 40.3515 63.4864 39.3542L65.3666 30.2124C65.68 29.0489 66.1109 27.8438 66.6984 26.6803C67.286 25.5168 68.1869 24.3949 69.4403 23.3561C70.6546 22.2757 72.0256 21.777 73.5532 21.777C74.5717 21.777 75.0809 22.3172 75.0809 23.4392C75.0809 24.6858 74.415 25.9324 73.1223 27.0959C71.8297 28.2594 70.4196 29.0073 68.9311 29.2567C68.8136 30.5864 68.7353 31.5006 68.7353 32.0823C68.7353 34.8664 69.3228 37.0687 70.4979 38.6893C71.673 40.3099 73.3965 41.0994 75.7076 41.0994C78.4103 41.0994 80.7606 39.8528 82.7583 37.4012C83.0324 37.0687 83.2675 36.7363 83.5417 36.3623C83.855 37.1934 84.2467 37.9414 84.7559 38.5647C86.0486 40.2268 87.7721 41.0579 89.9656 41.0579C92.7467 41.0579 95.0969 39.6451 97.0163 36.7779C97.8388 39.6451 99.8365 41.0579 103.088 41.0579C104.929 41.0579 106.574 40.4346 108.101 39.188C109.316 40.4346 110.883 41.0579 112.763 41.0579C115.544 41.0579 117.894 39.6451 119.813 36.7779C120.636 39.6451 122.634 41.0579 125.885 41.0579C127.961 41.0579 129.802 40.3099 131.408 38.814C132.779 40.3099 134.502 41.0579 136.696 41.0579C139.79 41.0579 142.415 39.6866 144.608 36.9441C146.058 34.9495 146.645 33.7445 146.958 32.8718C147.781 30.7526 148.173 28.5503 148.173 26.3479C148.173 24.6027 147.899 23.0652 147.389 21.7355H152.756L152.246 24.2287C151.385 28.5087 150.954 31.4175 150.954 32.9549C150.954 38.3569 153.03 41.0579 157.143 41.0579C161.726 41.0579 165.251 37.7752 167.758 31.1681C168.228 29.88 167.68 28.5918 166.583 28.1763ZM120.518 25.5168C119.774 29.2982 118.677 32.0823 117.306 33.8691C115.936 35.6559 114.447 36.5701 112.88 36.5701C111.979 36.5701 111.235 36.113 110.648 35.1988C110.099 34.2847 109.825 33.0796 109.825 31.6252C109.825 28.6749 110.491 26.2233 111.862 24.3533C113.233 22.4419 114.995 21.4861 117.189 21.4861C118.364 21.4861 119.618 22.0263 120.988 23.1483L120.518 25.5168ZM143.159 30.7526C143.159 30.7526 141.945 33.5367 140.809 34.7833C139.673 35.9884 138.341 36.6117 136.852 36.6117C135.756 36.6117 134.855 36.1961 134.228 35.365C133.601 34.534 133.288 33.3705 133.288 31.9161C133.288 29.0073 133.954 26.5557 135.325 24.5611C136.696 22.5665 138.38 21.5693 140.456 21.5693C142.806 21.5693 143.942 23.0652 143.942 26.0986C143.942 27.5945 143.707 29.132 143.159 30.7526ZM58.316 6.60995C57.3367 6.60995 56.5141 7.31636 56.3183 8.3552L50.286 38.2738C50.0118 39.6451 50.9911 40.8917 52.2837 40.8917C53.263 40.8917 54.0856 40.1853 54.2814 39.188L60.3528 9.26938C60.627 7.89811 59.6478 6.60995 58.316 6.60995ZM170.931 36.1546C169.599 35.8637 168.306 36.7363 167.993 38.1907C167.719 39.6035 168.541 41.0163 169.912 41.3072C171.283 41.5981 172.576 40.7255 172.85 39.2711C173.085 37.8167 172.262 36.4454 170.931 36.1546Z" fill="white"/>
</svg>
