<svg width="166" height="40" viewBox="0 0 166 40" fill="none" xmlns="http://www.w3.org/2000/svg">
<g clip-path="url(#clip0_231_31938)">
<path d="M65.3647 12.5742C66.3763 13.2355 67.2323 14.1448 67.777 15.3848C68.3995 16.6247 68.7107 18.1127 68.7107 19.766C68.7107 21.4193 68.3995 22.8246 67.6991 24.0646C67.0766 25.3046 66.1428 26.2139 64.9756 26.7925C63.8084 27.4538 62.4077 27.7845 60.9292 27.7845C60.0733 27.7845 59.2951 27.6192 58.5169 27.2885C57.7388 27.0405 57.0385 26.5445 56.4938 25.9659V34.563H51.9805V11.9128H55.8712L56.2603 13.7315C57.9722 12.2435 59.8398 11.4995 61.7852 11.4995C63.108 11.4995 64.3531 11.8302 65.3647 12.5742ZM62.8746 22.8246C63.6528 22.0806 64.0418 21.0886 64.0418 19.8487C64.0418 18.6087 63.6528 17.6167 62.9524 16.7901C62.2521 15.9634 61.3183 15.6328 60.3067 15.6328C59.4507 15.6328 58.6726 15.7981 58.0501 16.2114C57.4275 16.5421 56.9606 17.1207 56.5716 17.8647V21.5846C56.805 22.3286 57.2719 22.9073 57.8166 23.3206C58.4391 23.7339 59.1395 23.9819 59.9954 23.9819C61.1627 23.9819 62.0964 23.5686 62.8746 22.8246Z" fill="white"/>
<path d="M71.3553 15.4683C72.0557 14.3109 72.9895 13.319 74.2345 12.6577C75.4796 11.9963 76.8802 11.583 78.4365 11.583C79.9928 11.583 81.3935 11.9137 82.6385 12.6577C83.8058 13.319 84.7396 14.3109 85.4399 15.5509C86.1402 16.7909 86.4515 18.1135 86.4515 19.6842C86.4515 21.2548 86.1402 22.5774 85.4399 23.8174C84.7396 25.0574 83.8836 26.0494 82.6385 26.7107C81.4713 27.372 79.9928 27.7853 78.4365 27.7853C76.8802 27.7853 75.4796 27.4547 74.2345 26.7933C72.9895 26.132 72.0557 25.2227 71.3553 23.9827C70.7328 22.7428 70.3438 21.3375 70.3438 19.6842C70.3438 18.1135 70.7328 16.7082 71.3553 15.4683ZM75.9464 22.6601C76.569 23.4868 77.4249 23.8174 78.4365 23.8174C79.4481 23.8174 80.3041 23.4041 80.9266 22.6601C81.5491 21.9161 81.8604 20.8415 81.8604 19.6842C81.8604 18.4442 81.5491 17.4522 80.9266 16.7082C80.2263 15.8816 79.4481 15.4683 78.3587 15.4683C77.3471 15.4683 76.569 15.8816 75.8686 16.6256C75.2461 17.4522 74.9348 18.4442 74.9348 19.6842C74.9348 20.8415 75.2461 21.8335 75.9464 22.6601Z" fill="white"/>
<path d="M93.7672 0.174805V27.3716H89.2539V0.174805H93.7672Z" fill="white"/>
<path d="M112.285 12.3267L103.103 34.6462H98.7454L102.169 26.6277L95.6328 12.3267H100.769L104.504 21.2545L108.239 12.3267H112.285Z" fill="white"/>
<path d="M129.565 12.327V27.372C129.565 28.7773 129.176 30.0999 128.397 31.2573C127.619 32.4146 126.608 33.3239 125.285 33.9852C123.962 34.6465 122.561 34.9772 121.005 34.9772C119.838 34.9772 118.826 34.8118 117.97 34.5639C117.114 34.2332 116.414 33.9025 115.869 33.5719C115.247 33.1586 114.624 32.6626 113.924 32.0012L116.57 28.6946C117.192 29.356 117.892 29.852 118.515 30.1826C119.137 30.5133 119.993 30.7613 120.927 30.7613C122.094 30.7613 123.028 30.4306 123.806 29.852C124.584 29.2733 124.974 28.364 124.974 27.2893V25.1401C124.507 25.884 123.884 26.5454 122.95 27.0413C122.017 27.5373 120.927 27.7853 119.682 27.7853C118.437 27.7853 117.192 27.4547 116.103 26.7107C115.013 26.0494 114.157 25.0574 113.457 23.8174C112.834 22.5774 112.445 21.2548 112.445 19.7668C112.445 18.2789 112.757 16.8736 113.457 15.6336C114.157 14.3936 115.013 13.4016 116.18 12.6577C117.27 11.9137 118.437 11.583 119.682 11.583C120.849 11.583 121.861 11.7483 122.795 12.079C123.728 12.4097 124.429 12.9056 124.896 13.4843L125.363 12.327H129.565ZM124.974 21.5855V17.8655C124.662 17.1216 124.195 16.5429 123.495 16.1296C122.795 15.7163 122.017 15.4683 121.083 15.4683C119.993 15.4683 119.06 15.8816 118.281 16.6256C117.503 17.3696 117.114 18.3615 117.114 19.6015C117.114 20.7588 117.503 21.8335 118.281 22.6601C119.06 23.4868 119.993 23.9001 121.083 23.9001C122.873 23.8174 124.195 23.0734 124.974 21.5855Z" fill="white"/>
<path d="M133.297 15.4674C133.997 14.2275 134.931 13.3181 136.176 12.5742C137.421 11.9128 138.822 11.4995 140.378 11.4995C141.934 11.4995 143.335 11.8302 144.58 12.5742C145.747 13.2355 146.681 14.2275 147.381 15.4674C148.004 16.7074 148.393 18.03 148.393 19.6007C148.393 21.1713 148.082 22.4939 147.381 23.7339C146.759 24.9739 145.825 25.9659 144.58 26.6272C143.413 27.2885 141.934 27.7018 140.378 27.7018C138.822 27.7018 137.421 27.3712 136.176 26.7099C134.931 26.0485 133.997 25.1392 133.297 23.8993C132.596 22.6593 132.285 21.254 132.285 19.518C132.285 18.1127 132.596 16.7074 133.297 15.4674ZM137.81 22.6593C138.433 23.4859 139.289 23.8166 140.3 23.8166C141.312 23.8166 142.168 23.4033 142.79 22.6593C143.413 21.9153 143.724 20.8406 143.724 19.6833C143.724 18.4434 143.413 17.4514 142.79 16.7074C142.168 15.9634 141.312 15.5501 140.3 15.5501C139.289 15.5501 138.51 15.9634 137.81 16.7074C137.11 17.4514 136.798 18.526 136.798 19.6833C136.876 20.8406 137.188 21.8326 137.81 22.6593Z" fill="white"/>
<path d="M164.346 12.823C165.28 13.6496 165.669 14.7243 165.746 16.0469V27.372H161.155V17.8655C161.078 16.3776 160.377 15.6336 159.054 15.6336C158.043 15.6336 157.187 16.1296 156.564 17.2042C155.942 18.2789 155.63 19.6015 155.63 21.1721V27.372H151.117V12.327H155.241L155.553 14.7243C156.097 13.7323 156.798 12.9883 157.731 12.4097C158.665 11.831 159.755 11.583 161 11.583C162.323 11.583 163.49 11.9963 164.346 12.823Z" fill="white"/>
<path d="M32.6819 12.0808C31.9037 11.5848 30.8921 11.5848 30.0362 12.0808L23.9666 15.8834L19.8424 18.3634L13.7728 22.1659C12.9946 22.6619 11.983 22.6619 11.1271 22.1659L6.30253 19.19C5.52438 18.694 4.97967 17.7847 4.97967 16.7927V10.9235C4.97967 9.93154 5.44657 9.02222 6.30253 8.52623L11.0493 5.63296C11.8274 5.13697 12.839 5.13697 13.695 5.63296L18.4417 8.52623C19.2199 9.02222 19.7646 9.93154 19.7646 10.9235V14.7261L23.8888 12.1635V8.3609C23.8888 7.36892 23.4219 6.45961 22.5659 5.96362L13.7728 0.507734C12.9946 0.0117448 11.983 0.0117448 11.1271 0.507734L2.17833 5.96362C1.32236 6.45961 0.855469 7.36892 0.855469 8.3609V19.3553C0.855469 20.3473 1.32236 21.2566 2.17833 21.7526L11.1271 27.2085C11.9052 27.7045 12.9168 27.7045 13.7728 27.2085L19.8424 23.4886L23.9666 20.926L30.0362 17.206C30.8143 16.7101 31.8259 16.7101 32.6819 17.206L37.4286 20.0993C38.2068 20.5953 38.7515 21.5046 38.7515 22.4966V28.3658C38.7515 29.3578 38.2846 30.2671 37.4286 30.7631L32.6819 33.739C31.9037 34.235 30.8921 34.235 30.0362 33.739L25.2894 30.8458C24.5113 30.3498 23.9666 29.4405 23.9666 28.4485V24.6459L19.8424 27.2085V31.0111C19.8424 32.0031 20.3093 32.9124 21.1652 33.4084L30.114 38.8643C30.8921 39.3602 31.9037 39.3602 32.7597 38.8643L41.7084 33.4084C42.4866 32.9124 43.0313 32.0031 43.0313 31.0111V20.0167C43.0313 19.0247 42.5644 18.1154 41.7084 17.6194L32.6819 12.0808Z" fill="white"/>
</g>
<defs>
<clipPath id="clip0_231_31938">
<rect width="164.89" height="39.1832" fill="white" transform="translate(0.855469 0.0908203)"/>
</clipPath>
</defs>
</svg>
