<svg width="172" height="36" viewBox="0 0 172 36" fill="none" xmlns="http://www.w3.org/2000/svg">
<g clip-path="url(#clip0_231_31950)">
<path d="M58.3042 19.5871H64.7637C65.671 19.5871 66.4065 20.3796 66.4065 21.3574C66.4065 22.3351 65.671 23.1277 64.7637 23.1277H56.9725C56.8509 23.1277 56.7333 23.1745 56.6408 23.2597L54.2884 25.4285C53.9283 25.7605 54.1462 26.396 54.6201 26.396H64.3735C64.3775 26.396 64.3807 26.3925 64.3807 26.3882C64.3807 26.3836 64.3843 26.38 64.3886 26.3804C64.5113 26.3907 64.6353 26.396 64.7605 26.396C67.3478 26.396 69.4452 24.1402 69.4452 21.3574C69.4452 18.7148 67.5538 16.5474 65.1477 16.3357C65.1435 16.3353 65.1404 16.3316 65.1404 16.3272C65.1404 16.3225 65.1369 16.3187 65.1325 16.3187H58.1737C57.2664 16.3187 56.5308 15.5262 56.5308 14.5484C56.5308 13.5707 57.2664 12.778 58.1737 12.778H65.954C66.0821 12.778 66.2056 12.7261 66.2998 12.6326L68.4842 10.4639C68.8259 10.1246 68.6031 9.50977 68.1385 9.50977H58.3042C58.3038 9.50977 58.3034 9.5101 58.3034 9.5106C58.3034 9.51111 58.303 9.51152 58.3025 9.51152C58.2607 9.51035 58.2188 9.50977 58.1768 9.50977C55.5895 9.50977 53.4922 11.7656 53.4922 14.5484C53.4922 17.3311 55.5895 19.5871 58.1768 19.5871C58.2188 19.5871 58.2607 19.5864 58.3025 19.5852C58.303 19.5852 58.3034 19.5856 58.3034 19.5862C58.3034 19.5867 58.3038 19.5871 58.3042 19.5871Z" fill="white"/>
<path d="M95.9256 9.50977C95.6428 9.50977 95.4141 9.75585 95.4141 10.0595V25.8463C95.4141 26.1498 95.6428 26.396 95.9256 26.396H107.753C107.894 26.396 108.03 26.3331 108.126 26.2222L109.607 24.5243C109.913 24.1731 109.681 23.5985 109.234 23.5985H98.9065C98.6244 23.5985 98.3957 23.3523 98.3957 23.0486V10.0595C98.3957 9.75585 98.1661 9.50977 97.8841 9.50977H95.9256Z" fill="white"/>
<path fill-rule="evenodd" clip-rule="evenodd" d="M76.9841 9.50977C76.9833 9.50977 76.9827 9.51044 76.9827 9.51119C76.9827 9.51203 76.9821 9.5127 76.9813 9.5127C75.4696 9.58275 74.2557 10.8839 74.1903 12.5043C74.1902 12.5051 74.1896 12.5057 74.1889 12.5057C74.1885 12.5057 74.1881 12.5059 74.1879 12.5062C74.1877 12.5065 74.1875 12.5068 74.1875 12.5072V23.1263C74.1875 23.1271 74.1881 23.1277 74.1888 23.1277C74.1896 23.1277 74.1902 23.1284 74.1902 23.1292C74.1884 23.1738 74.1875 23.2187 74.1875 23.2639C74.1875 24.9476 75.427 26.321 76.9813 26.3931C76.9821 26.3931 76.9827 26.3938 76.9827 26.3945L76.9828 26.3952L76.9831 26.3957C76.9834 26.3959 76.9838 26.396 76.9841 26.396H87.7162C87.717 26.396 87.7178 26.3954 87.7178 26.3945V26.3937L87.7186 26.3933L87.7194 26.3931C89.2736 26.321 90.513 24.9476 90.513 23.2639C90.513 23.2187 90.5122 23.1738 90.5106 23.1292C90.5106 23.1284 90.5114 23.1277 90.5114 23.1277C90.5122 23.1277 90.513 23.1271 90.513 23.1263V12.5072C90.513 12.5064 90.5122 12.5057 90.5114 12.5057C90.5106 12.5057 90.5106 12.5051 90.5106 12.5043C90.4448 10.8839 89.2313 9.58275 87.7194 9.5127C87.7186 9.5127 87.7178 9.51203 87.7178 9.51119C87.7178 9.51044 87.717 9.50977 87.7162 9.50977H76.9841ZM78.9845 12.5057L78.9837 12.5061V12.5066C78.9837 12.5071 78.9837 12.5076 78.9829 12.5076C78.0381 12.5516 77.2794 13.3701 77.2385 14.3894C77.2385 14.3898 77.2381 14.3902 77.2377 14.3902C77.2372 14.3902 77.2368 14.3906 77.2368 14.3911V21.071C77.2368 21.0715 77.2372 21.0718 77.2377 21.0718C77.2381 21.0718 77.2384 21.0722 77.2384 21.0727C77.2373 21.1009 77.2368 21.1291 77.2368 21.1575C77.2368 22.2166 78.0115 23.0806 78.9829 23.1258C78.9837 23.1259 78.9837 23.1263 78.9837 23.1267V23.1273L78.9845 23.1276V23.1277H85.7162V23.1277L85.717 23.1272V23.1267C85.717 23.1263 85.717 23.1259 85.7178 23.1258C86.6892 23.0806 87.464 22.2166 87.464 21.1575C87.464 21.1291 87.4632 21.1009 87.4624 21.0727V21.0726V21.0723L87.4632 21.0718C87.4632 21.0718 87.464 21.0715 87.464 21.071V14.3911C87.464 14.3906 87.4632 14.3902 87.4632 14.3902C87.4624 14.3902 87.4624 14.3898 87.4624 14.3894C87.4209 13.3701 86.6626 12.5516 85.7178 12.5076C85.717 12.5076 85.717 12.5071 85.717 12.5066V12.5061L85.7162 12.5058V12.5057H78.9845Z" fill="white"/>
<path fill-rule="evenodd" clip-rule="evenodd" d="M126.809 25.8463C126.809 26.1498 127.036 26.396 127.316 26.396H129.322C129.602 26.396 129.829 26.1498 129.829 25.8463V12.7795C129.829 12.7787 129.829 12.778 129.828 12.778V12.7779L129.827 12.7777C129.827 12.7774 129.827 12.777 129.827 12.7765C129.829 12.7319 129.829 12.687 129.829 12.6419C129.829 10.9581 128.602 9.58476 127.062 9.5127C127.062 9.5127 127.061 9.51203 127.061 9.51119C127.061 9.51044 127.06 9.50977 127.059 9.50977H116.756C116.755 9.50977 116.754 9.51035 116.754 9.51119C116.754 9.51194 116.754 9.51261 116.753 9.51261C116.712 9.51069 116.671 9.50977 116.629 9.50977C115.03 9.50977 113.734 10.9121 113.734 12.6419C113.734 12.687 113.735 12.7319 113.737 12.7765C113.737 12.7774 113.737 12.778 113.736 12.778C113.735 12.778 113.734 12.7787 113.734 12.7795V25.8463C113.734 26.1498 113.962 26.396 114.241 26.396H116.248C116.527 26.396 116.754 26.1498 116.754 25.8463V20.4092C116.754 20.1056 116.982 19.8594 117.261 19.8594H126.302C126.582 19.8594 126.809 20.1056 126.809 20.4092V25.8463ZM116.754 16.8584V14.1399C116.754 13.0869 117.543 12.2333 118.516 12.2333H125.047C126.02 12.2333 126.809 13.0869 126.809 14.1399V16.8584C126.809 17.1621 126.582 17.4081 126.302 17.4081H117.262C116.982 17.4081 116.754 17.1621 116.754 16.8584Z" fill="white"/>
<path fill-rule="evenodd" clip-rule="evenodd" d="M169.156 26.396C168.873 26.396 168.643 26.1498 168.643 25.8463V20.4092C168.643 20.1056 168.415 19.8594 168.132 19.8594H158.991C158.708 19.8594 158.479 20.1056 158.479 20.4092V25.8463C158.479 26.1498 158.25 26.396 157.967 26.396H155.942C155.659 26.396 155.43 26.1498 155.43 25.8463V12.7795V12.7791L155.43 12.7786C155.43 12.7783 155.431 12.778 155.431 12.778C155.432 12.778 155.433 12.7774 155.433 12.7765C155.431 12.7319 155.43 12.687 155.43 12.6419C155.43 10.9121 156.738 9.50977 158.353 9.50977C158.394 9.50977 158.436 9.51069 158.478 9.51261C158.479 9.51261 158.479 9.51194 158.479 9.51119C158.479 9.51035 158.479 9.50977 158.48 9.50977H168.896C168.897 9.50977 168.898 9.51044 168.898 9.51119C168.898 9.51203 168.898 9.5127 168.899 9.5127C170.453 9.58476 171.693 10.9581 171.693 12.6419C171.693 12.687 171.691 12.7319 171.69 12.7765C171.69 12.7774 171.691 12.778 171.691 12.778C171.691 12.778 171.692 12.7782 171.692 12.7785C171.692 12.7787 171.693 12.7791 171.693 12.7795V25.8463C171.693 26.1498 171.464 26.396 171.181 26.396H169.156ZM158.479 14.1399V16.8584C158.479 17.1621 158.708 17.4081 158.991 17.4081H168.132C168.415 17.4081 168.643 17.1621 168.643 16.8584V14.1399C168.643 13.0869 167.847 12.2333 166.865 12.2333H160.258C159.275 12.2333 158.479 13.0869 158.479 14.1399Z" fill="white"/>
<path d="M137.377 9.50977C137.526 9.50977 137.667 9.58032 137.763 9.70281L146.76 21.1734C147.066 21.5622 147.653 21.3277 147.653 20.8166V10.0595C147.653 9.75585 147.879 9.50977 148.16 9.50977H150.165C150.446 9.50977 150.673 9.75585 150.673 10.0595V25.8463C150.673 26.1498 150.446 26.396 150.165 26.396H147.672C147.661 26.396 147.653 26.3868 147.653 26.3755C147.653 26.3705 147.651 26.3657 147.648 26.362L138.501 14.9714C138.192 14.5888 137.611 14.8251 137.611 15.333V25.8463C137.611 26.1498 137.384 26.396 137.105 26.396H135.085C134.805 26.396 134.578 26.1498 134.578 25.8463V10.0595C134.578 9.75585 134.805 9.50977 135.085 9.50977H137.377Z" fill="white"/>
<path d="M6.85844 26.978C7.10857 26.7107 7.44771 26.5605 7.8013 26.5605H40.4267C41.0211 26.5605 41.3186 27.3291 40.8982 27.7785L34.4514 34.6681C34.2014 34.9354 33.8622 35.0857 33.5086 35.0857H0.88315C0.288816 35.0857 -0.00870563 34.317 0.41172 33.8676L6.85844 26.978Z" fill="white"/>
<path d="M6.85844 1.23877C7.10857 0.971448 7.44771 0.821289 7.8013 0.821289H40.4267C41.0211 0.821289 41.3186 1.58996 40.8982 2.03927L34.4514 8.92893C34.2014 9.19625 33.8622 9.34641 33.5086 9.34641H0.88315C0.288817 9.34641 -0.00870566 8.57772 0.41172 8.12841L6.85844 1.23877Z" fill="white"/>
<path d="M34.4514 14.0269C34.2014 13.7596 33.8622 13.6094 33.5086 13.6094H0.88315C0.288816 13.6094 -0.0087056 14.3781 0.41172 14.8274L6.85844 21.7171C7.10857 21.9843 7.44771 22.1345 7.8013 22.1345H40.4267C41.0211 22.1345 41.3186 21.3658 40.8982 20.9165L34.4514 14.0269Z" fill="white"/>
</g>
<defs>
<clipPath id="clip0_231_31950">
<rect width="171.486" height="34.2697" fill="white" transform="translate(0.214844 0.821289)"/>
</clipPath>
</defs>
</svg>
